<svg xmlns="http://www.w3.org/2000/svg" width="277.648" height="139.104" viewBox="0 0 277.648 139.104">
  <g id="reception" transform="translate(0)">
    <path id="Path_727" data-name="Path 727" d="M538.754,303.137l-.181-6.1m0,0-.483-6.068" transform="translate(-285.849 -164.533)" fill="none" stroke="#fff" stroke-width="1"/>
    <path id="Path_728" data-name="Path 728" d="M534.949,276.794l-7.729-8.574" transform="translate(-307.796 -210.466)" fill="none" stroke="#fff" stroke-width="1"/>
    <path id="Path_729" data-name="Path 729" d="M554.868,331.169,553.178,320.3m0,0-2.747-10.687m0,0-3.744-10.325m0,0-4.71-9.963m0,0-5.646-9.419m0,0-6.551-8.846" transform="translate(-302.627 -204.732)" fill="none" stroke="#fff" stroke-width="1"/>
    <path id="Path_730" data-name="Path 730" d="M566.432,338.829l-1.691-11.291m0,0-2.6-11.14m0,0-3.532-10.869m0,0L554.2,294.963m0,0-5.253-10.144m0,0-6.1-9.691m0,0L536,265.98" transform="translate(-290.069 -214.988)" fill="none" stroke="#fff" stroke-width="1"/>
    <path id="Path_731" data-name="Path 731" d="M542.259,272.926l-4.559-5.314m0,0-4.8-5.072" transform="translate(-296.328 -221.934)" fill="none" stroke="#fff" stroke-width="1"/>
    <path id="Path_732" data-name="Path 732" d="M546.865,304.873l-.181-7.4m0,0-.6-7.367" transform="translate(-269.717 -166.269)" fill="none" stroke="#fff" stroke-width="1"/>
    <path id="Path_733" data-name="Path 733" d="M527.22,279.688l17.148-17.148" transform="translate(-307.796 -221.934)" fill="none" stroke="#fff" stroke-width="1"/>
    <path id="Path_734" data-name="Path 734" d="M538.31,295h24.243" transform="translate(-285.405 -156.396)" fill="none" stroke="#fff" stroke-width="1"/>
    <path id="Path_735" data-name="Path 735" d="M527.98,295h55.43" transform="translate(-306.262 -156.396)" fill="none" stroke="#fff" stroke-width="1"/>
    <path id="Path_736" data-name="Path 736" d="M544.274,334.331,543.761,325m0,0-1.57-9.178m0,0-2.6-8.967m0,0-3.562-8.6m0,0-4.5-8.182m0,0-5.4-7.578m0,0-6.219-6.974" transform="translate(-322.555 -195.727)" fill="none" stroke="#fff" stroke-width="1"/>
    <path id="Path_737" data-name="Path 737" d="M559.128,262.54,519.91,301.727" transform="translate(-322.555 -221.934)" fill="none" stroke="#fff" stroke-width="1"/>
    <path id="Path_738" data-name="Path 738" d="M546.865,304.873l-.181-7.4m0,0-.6-7.367" transform="translate(-269.717 -166.269)" fill="none" stroke="#fff" stroke-width="1"/>
    <path id="Path_739" data-name="Path 739" d="M542.259,272.926l-4.559-5.314m0,0-4.8-5.072" transform="translate(-296.328 -221.934)" fill="none" stroke="#fff" stroke-width="1"/>
    <path id="Path_740" data-name="Path 740" d="M566.432,338.829l-1.691-11.291m0,0-2.6-11.14m0,0-3.532-10.869m0,0L554.2,294.963m0,0-5.253-10.144m0,0-6.1-9.691m0,0L536,265.98" transform="translate(-290.069 -214.988)" fill="none" stroke="#fff" stroke-width="1"/>
    <path id="Path_741" data-name="Path 741" d="M527.98,294.42H529.1m1.238,0h.845m1.238,0h.815m1.268,0h.815m1.268,0h.815m1.238,0h.845m1.238,0h.845m1.238,0h.845m1.238,0h.815m1.268,0h.815m1.268,0h.815m1.268,0h.815m1.238,0h.845m1.238,0h.845m1.238,0h.845m1.238,0h.815m1.268,0h.815m1.268,0h.815m1.238,0h.845m1.238,0h.845m1.238,0h.845m1.238,0h.845m1.238,0h.815m1.268,0h.815m1.268,0h.815m1.238,0h.845m1.238,0h1.117" transform="translate(-306.262 -157.567)" fill="none" stroke="#fff" stroke-width="1"/>
    <path id="Path_742" data-name="Path 742" d="M547.554,262.94l-.664.694m-.876.875-.6.574m-.875.876-.574.6m-.906.875-.574.6m-.875.876-.6.574m-.875.906-.574.574m-.906.876-.574.6m-.875.876-.6.574m-.875.906-.574.574m-.906.876-.574.6m-.876.876-.6.574m-.876.906-.574.574m-.906.876-.574.6m-.875.875-.6.6m-.875.876-.664.664" transform="translate(-309.775 -221.126)" fill="none" stroke="#fff" stroke-width="1"/>
    <path id="Path_743" data-name="Path 743" d="M546.355,303.021v-.6m-.03-1.268-.03-.815m-.03-1.238-.06-.845m-.06-1.238v-.423m0,0-.03-.423m-.091-1.238-.06-.815m-.09-1.238-.091-.845m-.121-1.238-.06-.634" transform="translate(-270.686 -166.168)" fill="none" stroke="#fff" stroke-width="1"/>
    <path id="Path_744" data-name="Path 744" d="M565.73,338.375l-.06-.513m-.151-1.238-.091-.815m-.151-1.238-.03-.121m0,0-.091-.725m-.211-1.238-.121-.815m-.181-1.238-.151-.815m-.211-1.208-.151-.815m-.242-1.238-.151-.815m-.272-1.208-.181-.815m-.272-1.238-.181-.815m-.3-1.208-.181-.785m-.3-1.208-.242-.815m-.332-1.208-.211-.785m-.332-1.208-.242-.785m-.362-1.208-.242-.785m-.392-1.208-.272-.785m-.393-1.177-.272-.755m0,0v-.03m-.422-1.177-.3-.785m-.423-1.147-.211-.574m0,0-.091-.211m-.453-1.147-.3-.785m-.483-1.147-.151-.393m0,0-.151-.392m-.513-1.147-.332-.755m-.483-1.147-.091-.211m0,0-.272-.544m-.513-1.117-.362-.755m-.543-1.147h0m0,0-.362-.725m-.574-1.117-.362-.755m-.574-1.087-.393-.755m-.6-1.087-.393-.725m-.6-1.087-.393-.725m-.634-1.087-.423-.725m-.634-1.057-.453-.725m-.634-1.057-.453-.694m-.664-1.057-.453-.694m-.694-1.026-.453-.694m-.725-1.026-.483-.694M541,273.314l-.483-.664m-.755-1-.483-.664m-.755-1.026-.453-.574m0,0-.06-.091m-.755-.966-.513-.664m-.785-.966-.332-.423" transform="translate(-290.816 -214.383)" fill="none" stroke="#fff" stroke-width="1"/>
    <path id="Path_745" data-name="Path 745" d="M541.021,272.317l-.815-.966m-.815-.966-.544-.634m-.815-.936-.543-.634m-.815-.936-.574-.6m-.845-.906-.573-.6m-.845-.906-.875-.936" transform="translate(-296.207 -220.42)" fill="none" stroke="#fff" stroke-width="1"/>
    <path id="Path_746" data-name="Path 746" d="M463.2,290.97l-.483,6.068m0,0-.151,6.1" transform="translate(-438.327 -164.533)" fill="none" stroke="#fff" stroke-width="1"/>
    <path id="Path_747" data-name="Path 747" d="M478.829,268.22l-7.729,8.574" transform="translate(-421.105 -210.466)" fill="none" stroke="#fff" stroke-width="1"/>
    <path id="Path_748" data-name="Path 748" d="M487.9,271.06l-6.551,8.846m0,0-5.646,9.419m0,0-4.74,9.963m0,0-3.744,10.325m0,0L464.471,320.3m0,0-1.691,10.869" transform="translate(-437.903 -204.732)" fill="none" stroke="#fff" stroke-width="1"/>
    <path id="Path_749" data-name="Path 749" d="M485.2,265.98l-6.853,9.148m0,0-6.068,9.691m0,0L467,294.963m0,0-4.408,10.567m0,0-3.5,10.869m0,0-2.626,11.14m0,0L454.8,338.829" transform="translate(-454.015 -214.988)" fill="none" stroke="#fff" stroke-width="1"/>
    <path id="Path_750" data-name="Path 750" d="M474.259,262.54l-4.83,5.072m0,0-4.559,5.314" transform="translate(-433.683 -221.934)" fill="none" stroke="#fff" stroke-width="1"/>
    <path id="Path_751" data-name="Path 751" d="M485.128,279.688,467.98,262.54" transform="translate(-427.404 -221.934)" fill="none" stroke="#fff" stroke-width="1"/>
    <path id="Path_752" data-name="Path 752" d="M478.783,295H454.54" transform="translate(-454.54 -156.396)" fill="none" stroke="#fff" stroke-width="1"/>
    <path id="Path_753" data-name="Path 753" d="M509.97,295H454.54" transform="translate(-454.54 -156.396)" fill="none" stroke="#fff" stroke-width="1"/>
    <path id="Path_754" data-name="Path 754" d="M497.233,275.52l-6.219,6.974m0,0-5.374,7.578m0,0-4.529,8.182m0,0-3.562,8.6m0,0-2.566,8.967m0,0L473.413,325m0,0-.513,9.329" transform="translate(-417.47 -195.727)" fill="none" stroke="#fff" stroke-width="1"/>
    <path id="Path_755" data-name="Path 755" d="M467.98,262.54l39.187,39.187" transform="translate(-427.404 -221.934)" fill="none" stroke="#fff" stroke-width="1"/>
    <path id="Path_756" data-name="Path 756" d="M474.259,262.54l-4.83,5.072m0,0-4.559,5.314" transform="translate(-433.683 -221.934)" fill="none" stroke="#fff" stroke-width="1"/>
    <path id="Path_757" data-name="Path 757" d="M485.2,265.98l-6.853,9.148m0,0-6.068,9.691m0,0L467,294.963m0,0-4.408,10.567m0,0-3.5,10.869m0,0-2.626,11.14m0,0L454.8,338.829" transform="translate(-454.015 -214.988)" fill="none" stroke="#fff" stroke-width="1"/>
    <path id="Path_758" data-name="Path 758" d="M509.97,294.42h-1.117m-1.238,0h-.845m-1.238,0h-.845m-1.238,0H502.6m-1.238,0h-.845m-1.238,0h-.815m-1.268,0h-.815m-1.268,0H494.3m-1.238,0h-.845m-1.238,0h-.845m-1.238,0h-.845m-1.238,0h-.845m-1.238,0h-.815m-1.268,0h-.815m-1.268,0h-.815m-1.238,0h-.845m-1.238,0h-.845m-1.238,0H473.5m-1.238,0h-.815m-1.268,0h-.815m-1.268,0h-.815m-1.268,0H465.2m-1.238,0h-.845m-1.238,0h-.845m-1.238,0h-.845m-1.238,0h-.815m-1.268,0H454.54" transform="translate(-454.54 -157.567)" fill="none" stroke="#fff" stroke-width="1"/>
    <path id="Path_759" data-name="Path 759" d="M467.57,262.94l.664.694m.906.875.574.574m.876.876.6.6m.875.875.6.6m.875.876.574.574m.876.906.6.574m.875.876.6.6m.876.876.574.574m.875.906.6.574m.876.876.6.6m.876.876.574.574m.906.906.574.574m.876.876.6.6m.875.875.574.6m.906.876.664.664" transform="translate(-428.232 -221.126)" fill="none" stroke="#fff" stroke-width="1"/>
    <path id="Path_760" data-name="Path 760" d="M485.4,266.28l-.332.423m-.785.966-.513.664m-.785.966-.06.091m0,0-.423.574m-.755,1.026-.513.664m-.725,1-.483.664m-.725,1.027-.483.694m-.694,1.026-.453.694m-.694,1.026-.453.694m-.694,1.057-.423.694m-.664,1.057-.423.725m-.634,1.057-.423.725m-.634,1.087-.423.725m-.6,1.087-.392.725m-.6,1.087-.392.755m-.574,1.087-.362.755m-.574,1.117-.362.725m0,0h0m-.543,1.147-.332.755m-.544,1.117-.242.544m0,0-.091.211m-.513,1.147-.332.755m-.483,1.147-.181.392m0,0-.151.393m-.453,1.147-.3.785m-.483,1.147-.06.211m0,0-.211.574m-.453,1.147-.272.785m-.423,1.177-.03.03m0,0-.242.755m-.393,1.177-.272.785m-.393,1.208-.241.785m-.362,1.208-.242.785m-.362,1.208-.211.785m-.332,1.208-.211.815m-.3,1.208-.211.785m-.272,1.208-.211.815m-.272,1.238-.181.815m-.242,1.208-.181.815M456.9,327.6l-.151.815m-.242,1.208-.151.815m-.181,1.238-.121.815m-.181,1.238-.121.725m0,0v.121m-.151,1.238-.091.815m-.151,1.238-.091.513" transform="translate(-453.066 -214.383)" fill="none" stroke="#fff" stroke-width="1"/>
    <path id="Path_761" data-name="Path 761" d="M473.311,263.29l-.876.936m-.876.906-.574.6m-.845.906-.543.6m-.845.936-.543.634m-.815.936-.543.634m-.785.966-.815.966" transform="translate(-432.916 -220.42)" fill="none" stroke="#fff" stroke-width="1"/>
    <path id="Path_762" data-name="Path 762" d="M515.78,257.673l.483-1.328m0,0,1.238-.725m0,0,1.389.241m0,0,.906,1.087m0,0V258.4m0,0-.906,1.087m0,0-1.389.242m0,0L516.263,259m0,0-.483-1.328" transform="translate(-330.894 -235.906)" fill="none" stroke="#fff" stroke-width="1"/>
    <path id="Path_763" data-name="Path 763" d="M526.36,264.023l.483-1.359m0,0,1.208-.694m0,0,1.419.242m0,0,.906,1.087m0,0v1.419m0,0-.906,1.087m0,0-1.419.242m0,0-1.208-.694m0,0-.483-1.328" transform="translate(-309.532 -223.085)" fill="none" stroke="#fff" stroke-width="1"/>
    <path id="Path_764" data-name="Path 764" d="M503.81,254.683l.483-1.328m0,0,1.238-.724m0,0,1.389.241m0,0,.936,1.087m0,0v1.419m0,0-.936,1.087m0,0-1.389.272m0,0-1.238-.725m0,0-.483-1.328" transform="translate(-355.062 -241.943)" fill="none" stroke="#fff" stroke-width="1"/>
    <path id="Path_765" data-name="Path 765" d="M500.48,249.33v22.854" transform="translate(-361.785 -248.605)" fill="none" stroke="#fff" stroke-width="1"/>
    <path id="Path_766" data-name="Path 766" d="M527.34,278.852l16.182-16.182" transform="translate(-307.554 -221.671)" fill="none" stroke="#fff" stroke-width="1"/>
    <path id="Path_767" data-name="Path 767" d="M527.02,268.03l.483.181m0,0,.483-.181" transform="translate(-308.2 -210.849)" fill="none" stroke="#fff" stroke-width="1"/>
    <path id="Path_768" data-name="Path 768" d="M500.48,256.9l.211.483m0,0,.483.211" transform="translate(-361.785 -233.321)" fill="none" stroke="#fff" stroke-width="1"/>
    <path id="Path_769" data-name="Path 769" d="M511.428,257.7l-10.718-.574" transform="translate(-361.321 -232.857)" fill="none" stroke="#fff" stroke-width="1"/>
    <path id="Path_770" data-name="Path 770" d="M532.693,273.1l-8.484-7.578" transform="translate(-313.873 -215.917)" fill="none" stroke="#fff" stroke-width="1"/>
    <path id="Path_771" data-name="Path 771" d="M564.49,282.076l-8.876-6.491m0,0L546.134,270m0,0-9.963-4.679m0,0-10.355-3.683m0,0-10.687-2.687m0,0-10.868-1.63" transform="translate(-354.153 -232.473)" fill="none" stroke="#fff" stroke-width="1"/>
    <path id="Path_772" data-name="Path 772" d="M539.646,268.539l-5.072-4.77m0,0-5.314-4.5" transform="translate(-303.677 -228.536)" fill="none" stroke="#fff" stroke-width="1"/>
    <path id="Path_773" data-name="Path 773" d="M578.1,279.339l-9.208-6.793m0,0-9.721-6.038m0,0L549,261.316m0,0-10.567-4.347m0,0-10.9-3.472m0,0-11.14-2.536m0,0-11.321-1.63" transform="translate(-352.518 -248.605)" fill="none" stroke="#fff" stroke-width="1"/>
    <path id="Path_774" data-name="Path 774" d="M532.7,263.336l.181-.3m0,0v-.362m0,0-.181-.332" transform="translate(-296.732 -222.338)" fill="none" stroke="#fff" stroke-width="1"/>
    <path id="Path_775" data-name="Path 775" d="M578.1,279.339l-9.208-6.793m0,0-9.721-6.038m0,0L549,261.316m0,0-10.567-4.347m0,0-10.9-3.472m0,0-11.14-2.536m0,0-11.321-1.63" transform="translate(-352.518 -248.605)" fill="none" stroke="#fff" stroke-width="1"/>
    <path id="Path_776" data-name="Path 776" d="M540.249,269.142l-5.374-5.072m0,0-5.615-4.8" transform="translate(-303.677 -228.536)" fill="none" stroke="#fff" stroke-width="1"/>
    <path id="Path_777" data-name="Path 777" d="M500.44,249.09v55.46" transform="translate(-361.866 -249.09)" fill="none" stroke="#fff" stroke-width="1"/>
    <path id="Path_778" data-name="Path 778" d="M559.221,291.793l-6.944-6.219m0,0-7.608-5.374m0,0-8.151-4.529m0,0-8.635-3.562m0,0-8.936-2.566m0,0-9.208-1.57m0,0-9.3-.513" transform="translate(-361.866 -212)" fill="none" stroke="#fff" stroke-width="1"/>
    <path id="Path_779" data-name="Path 779" d="M519.91,301.727l39.217-39.187" transform="translate(-322.555 -221.934)" fill="none" stroke="#fff" stroke-width="1"/>
    <path id="Path_780" data-name="Path 780" d="M513.116,250.274l-1.268-.121m-1.268-.091-.815-.091m-1.238-.091-.845-.03m-1.238-.091-.815-.03m-1.268-.06-.815-.03m-1.268-.03-1.268-.03" transform="translate(-360.715 -248.101)" fill="none" stroke="#fff" stroke-width="1"/>
    <path id="Path_781" data-name="Path 781" d="M577.3,279.517l-.423-.332m-1-.785-.664-.513m-.966-.755-.091-.06m0,0-.574-.453m-1-.725-.694-.513m-1-.725-.694-.483m-1.026-.694L568.51,273m-1.026-.694-.695-.453m-1.057-.694-.694-.453m-1.057-.664-.694-.453m-1.087-.634-.694-.423m-1.087-.634-.725-.423m-1.057-.634-.725-.392m-1.117-.6-.725-.392m-1.087-.6-.755-.392m-1.117-.543-.725-.362m-1.117-.574-.725-.362m0,0h-.03M549.4,262.1l-.755-.362m-1.147-.513-.544-.272m0,0-.211-.091m-1.147-.483-.755-.332m-1.147-.483-.392-.151m0,0-.393-.151m-1.147-.483-.785-.3m-1.147-.453-.211-.091m0,0-.574-.181m-1.177-.423-.785-.3M535.9,256.6h0m0,0-.785-.242m-1.177-.392-.785-.272m-1.177-.392-.815-.242m-1.177-.332-.815-.241m-1.208-.362-.785-.211m-1.208-.3-.815-.211m-1.208-.3-.815-.211m-1.208-.272-.815-.211m-1.208-.242-.815-.181m-1.208-.242-.815-.181m-1.238-.211-.815-.151m-1.238-.211-.815-.151m-1.238-.181-.815-.121m-1.238-.181-.725-.091m0,0h-.091m-1.238-.151-.845-.091m-1.238-.151-.513-.06" transform="translate(-352.619 -247.636)" fill="none" stroke="#fff" stroke-width="1"/>
    <path id="Path_782" data-name="Path 782" d="M538.591,268.194l-.453-.453m-.906-.845-.6-.574m-.906-.845-.634-.573m-.906-.815-.332-.3m0,0-.3-.272m-.936-.815-.634-.543m-.936-.815-.664-.513m-.966-.785-.453-.393" transform="translate(-304.283 -227.769)" fill="none" stroke="#fff" stroke-width="1"/>
    <path id="Path_783" data-name="Path 783" d="M501.01,249.09v.966m0,1.238v.845m0,1.238v.815m0,1.268v.815m0,1.268v.815m0,1.238v.845m0,1.238v.845m0,1.238v.845m0,1.238v.845m0,1.238v.815m0,1.268v.815m0,1.268v.815m0,1.238v.845m0,1.238v.845m0,1.238v.936" transform="translate(-360.715 -249.09)" fill="none" stroke="#fff" stroke-width="1"/>
    <path id="Path_784" data-name="Path 784" d="M546.744,262.13l-.664.664m-.876.906-.6.574m-.876.876-.574.6m-.906.876-.574.574m-.875.906-.6.574m-.875.876-.574.6m-.906.875-.574.6m-.875.876-.6.574m-.875.875-.6.6m-.875.876-.574.6m-.876.876-.6.574m-.876.906-.6.574m-.875.876-.574.6m-.906.875-.574.574m-.875.906-.664.664" transform="translate(-311.41 -222.762)" fill="none" stroke="#fff" stroke-width="1"/>
    <path id="Path_785" data-name="Path 785" d="M483.72,257.673l.483-1.328m0,0,1.238-.725m0,0,1.389.241m0,0,.936,1.087m0,0V258.4m0,0-.936,1.087m0,0-1.389.242m0,0L484.2,259m0,0-.483-1.328" transform="translate(-395.624 -235.906)" fill="none" stroke="#fff" stroke-width="1"/>
    <path id="Path_786" data-name="Path 786" d="M473.14,264.023l.483-1.359m0,0,1.238-.694m0,0,1.419.242m0,0,.906,1.087m0,0v1.419m0,0-.906,1.087m0,0-1.419.242m0,0-1.238-.694m0,0-.483-1.328" transform="translate(-416.986 -223.085)" fill="none" stroke="#fff" stroke-width="1"/>
    <path id="Path_787" data-name="Path 787" d="M495.69,254.683l.483-1.328m0,0,1.238-.724m0,0,1.389.241m0,0,.906,1.087m0,0v1.419m0,0-.906,1.087m0,0-1.389.272m0,0-1.238-.725m0,0-.483-1.328" transform="translate(-371.457 -241.943)" fill="none" stroke="#fff" stroke-width="1"/>
    <path id="Path_788" data-name="Path 788" d="M500.39,249.33v22.854" transform="translate(-361.967 -248.605)" fill="none" stroke="#fff" stroke-width="1"/>
    <path id="Path_789" data-name="Path 789" d="M484.352,278.852,468.17,262.67" transform="translate(-427.021 -221.671)" fill="none" stroke="#fff" stroke-width="1"/>
    <path id="Path_790" data-name="Path 790" d="M473.53,268.03l.483.181m0,0,.483-.181" transform="translate(-416.198 -210.849)" fill="none" stroke="#fff" stroke-width="1"/>
    <path id="Path_791" data-name="Path 791" d="M500.16,257.594l.513-.211m0,0,.181-.483" transform="translate(-362.431 -233.321)" fill="none" stroke="#fff" stroke-width="1"/>
    <path id="Path_792" data-name="Path 792" d="M507.307,257.13l-10.687.574" transform="translate(-369.579 -232.857)" fill="none" stroke="#fff" stroke-width="1"/>
    <path id="Path_793" data-name="Path 793" d="M482.333,265.52,473.85,273.1" transform="translate(-415.552 -215.917)" fill="none" stroke="#fff" stroke-width="1"/>
    <path id="Path_794" data-name="Path 794" d="M536.92,257.32l-10.9,1.63m0,0-10.657,2.687m0,0-10.385,3.683m0,0L495.016,270m0,0-9.45,5.585m0,0-8.906,6.491" transform="translate(-409.879 -232.473)" fill="none" stroke="#fff" stroke-width="1"/>
    <path id="Path_795" data-name="Path 795" d="M478.566,259.27l-5.314,4.5m0,0-5.072,4.77" transform="translate(-427 -228.536)" fill="none" stroke="#fff" stroke-width="1"/>
    <path id="Path_796" data-name="Path 796" d="M544.651,249.33l-11.321,1.63m0,0-11.14,2.536m0,0-10.9,3.472m0,0-10.6,4.347m0,0-10.174,5.193m0,0-9.721,6.038m0,0-9.178,6.793" transform="translate(-420.055 -248.605)" fill="none" stroke="#fff" stroke-width="1"/>
    <path id="Path_797" data-name="Path 797" d="M468.3,262.34l-.181.332m0,0v.362m0,0,.151.3" transform="translate(-427.121 -222.338)" fill="none" stroke="#fff" stroke-width="1"/>
    <path id="Path_798" data-name="Path 798" d="M544.651,249.33l-11.321,1.63m0,0-11.14,2.536m0,0-10.9,3.472m0,0-10.6,4.347m0,0-10.174,5.193m0,0-9.721,6.038m0,0-9.178,6.793" transform="translate(-420.055 -248.605)" fill="none" stroke="#fff" stroke-width="1"/>
    <path id="Path_799" data-name="Path 799" d="M478.969,259.27l-5.646,4.8m0,0-5.344,5.072" transform="translate(-427.404 -228.536)" fill="none" stroke="#fff" stroke-width="1"/>
    <path id="Path_800" data-name="Path 800" d="M500.44,249.09v55.46" transform="translate(-361.866 -249.09)" fill="none" stroke="#fff" stroke-width="1"/>
    <path id="Path_801" data-name="Path 801" d="M539.771,267.46l-9.329.513m0,0-9.178,1.57m0,0-8.967,2.566m0,0-8.6,3.562m0,0-8.182,4.529m0,0-7.578,5.374m0,0-6.974,6.219" transform="translate(-401.197 -212)" fill="none" stroke="#fff" stroke-width="1"/>
    <path id="Path_802" data-name="Path 802" d="M507.167,301.727,467.98,262.54" transform="translate(-427.404 -221.934)" fill="none" stroke="#fff" stroke-width="1"/>
    <path id="Path_803" data-name="Path 803" d="M507.936,249.58l-1.268.03m-1.238.03-.845.03m-1.238.06-.845.03m-1.238.091-.815.03m-1.238.091-.845.091m-1.238.091-1.268.121" transform="translate(-371.113 -248.101)" fill="none" stroke="#fff" stroke-width="1"/>
    <path id="Path_804" data-name="Path 804" d="M544.2,249.81l-.543.06m-1.238.151-.815.091m-1.238.151h-.121m0,0-.694.091m-1.238.181-.845.121m-1.208.181-.845.151m-1.208.211-.815.151m-1.238.211-.815.181m-1.238.242-.815.181m-1.208.242-.815.211m-1.208.272-.815.211m-1.208.3-.785.211m-1.208.3-.815.211m-1.208.362-.785.241m-1.208.332-.785.242m-1.177.392-.785.272m-1.208.392-.755.242m0,0h-.03m-1.177.423-.785.3m-1.177.423-.574.181m0,0-.181.091m-1.177.453-.755.3m-1.177.483-.392.151m0,0-.362.151m-1.147.483-.785.332m-1.147.483-.181.091m0,0-.574.272m-1.117.513-.755.362m-1.147.513h0m0,0-.725.362m-1.117.574-.755.362m-1.117.543-.724.392m-1.117.6-.724.392m-1.087.6-.725.392m-1.087.634-.725.423m-1.057.634-.725.423m-1.057.634-.725.453m-1.026.664-.725.453m-1.026.694-.694.453m-1.027.694-.694.483m-1.026.694-.694.483m-1,.725-.664.513m-1,.725-.6.453m0,0-.06.06m-1,.755-.664.513m-.966.785-.423.332" transform="translate(-419.449 -247.636)" fill="none" stroke="#fff" stroke-width="1"/>
    <path id="Path_805" data-name="Path 805" d="M478.361,259.65l-.483.393m-.966.785-.634.513m-.936.815-.634.543m-.936.815-.332.272m0,0-.3.3m-.936.815-.6.573m-.906.845-.6.574m-.906.845-.453.453" transform="translate(-425.89 -227.769)" fill="none" stroke="#fff" stroke-width="1"/>
    <path id="Path_806" data-name="Path 806" d="M499.86,249.09v.966m0,1.238v.845m0,1.238v.815m0,1.268v.815m0,1.268v.815m0,1.238v.845m0,1.238v.845m0,1.238v.845m0,1.238v.845m0,1.238v.815m0,1.268v.815m0,1.268v.815m0,1.238v.845m0,1.238v.845m0,1.238v.936" transform="translate(-363.037 -249.09)" fill="none" stroke="#fff" stroke-width="1"/>
    <path id="Path_807" data-name="Path 807" d="M468.39,262.13l.664.664m.876.906.574.574m.906.876.574.6m.876.876.6.574m.875.906.574.574m.906.876.574.6m.875.875.6.6m.876.876.574.574m.906.875.574.6m.876.876.6.6m.876.876.574.574m.906.906.574.574m.876.876.6.6m.875.875.6.574m.876.906.664.664" transform="translate(-426.576 -222.762)" fill="none" stroke="#fff" stroke-width="1"/>
    <path id="Path_808" data-name="Path 808" d="M486.319,290.77l-.906.211m0,0-.574.725m0,0,.06.936m0,0,.664.664m0,0,.906.06" transform="translate(-393.363 -164.936)" fill="none" stroke="#fff" stroke-width="1"/>
    <path id="Path_809" data-name="Path 809" d="M485.21,295.706l3.321-.634m0,0,3.019-1.54m0,0L494,291.238m0,0,1.721-2.9" transform="translate(-392.616 -169.843)" fill="none" stroke="#fff" stroke-width="1"/>
    <path id="Path_810" data-name="Path 810" d="M488.69,293.206l2.989-7.276" transform="translate(-385.59 -174.708)" fill="none" stroke="#fff" stroke-width="1"/>
    <path id="Path_811" data-name="Path 811" d="M491.154,294.37l.845-3.261m0,0-.091-3.351m0,0-1.057-3.23m0,0-1.9-2.778" transform="translate(-385.065 -183.148)" fill="none" stroke="#fff" stroke-width="1"/>
    <path id="Path_812" data-name="Path 812" d="M491.185,281.523l-.694-.453m0,0-.815.06m0,0-.634.513m0,0-.181.815m0,0,.362.755" transform="translate(-385.247 -184.521)" fill="none" stroke="#fff" stroke-width="1"/>
    <path id="Path_813" data-name="Path 813" d="M485.32,297.606l3.985-.785m0,0,3.592-1.872m0,0,2.928-2.808m0,0,2.053-3.472" transform="translate(-392.394 -169.176)" fill="none" stroke="#fff" stroke-width="1"/>
    <path id="Path_814" data-name="Path 814" d="M492.2,296.436l1.026-3.925m0,0-.121-4.046m0,0-1.208-3.864m0,0-2.264-3.381" transform="translate(-383.692 -184.218)" fill="none" stroke="#fff" stroke-width="1"/>
    <path id="Path_815" data-name="Path 815" d="M489.48,293.536l3.019-7.276" transform="translate(-383.995 -174.042)" fill="none" stroke="#fff" stroke-width="1"/>
    <path id="Path_816" data-name="Path 816" d="M489.425,278.4,477.47,307.2" transform="translate(-408.243 -189.912)" fill="none" stroke="#fff" stroke-width="1"/>
    <path id="Path_817" data-name="Path 817" d="M477.47,287.94l14.4,5.948" transform="translate(-408.243 -170.65)" fill="none" stroke="#fff" stroke-width="1"/>
    <path id="Path_818" data-name="Path 818" d="M481.43,278.4l14.4,5.948" transform="translate(-400.248 -189.912)" fill="none" stroke="#fff" stroke-width="1"/>
    <path id="Path_819" data-name="Path 819" d="M482.24,309.172l3.955,1.057m0,0h4.046m0,0,3.955-1.057m0,0,3.5-2.023m0,0,2.9-2.868m0,0,2.023-3.532m0,0,1.057-3.925m0,0v-4.076m0,0-1.057-3.925m0,0-2.023-3.532m0,0-2.9-2.868m0,0-3.5-2.053" transform="translate(-398.613 -185.934)" fill="none" stroke="#fff" stroke-width="1"/>
    <path id="Path_820" data-name="Path 820" d="M477.28,288.41l14.4,5.978" transform="translate(-408.627 -169.701)" fill="none" stroke="#fff" stroke-width="1"/>
    <path id="Path_821" data-name="Path 821" d="M476.95,289.21l14.4,5.978" transform="translate(-409.293 -168.086)" fill="none" stroke="#fff" stroke-width="1"/>
    <path id="Path_822" data-name="Path 822" d="M481.62,277.92l14.4,5.948" transform="translate(-399.864 -190.881)" fill="none" stroke="#fff" stroke-width="1"/>
    <path id="Path_823" data-name="Path 823" d="M481.95,277.12l14.4,5.978" transform="translate(-399.198 -192.496)" fill="none" stroke="#fff" stroke-width="1"/>
    <path id="Path_824" data-name="Path 824" d="M481.72,292.805l.785.06m0,0,.694-.423m0,0,.3-.755m0,0-.181-.785m0,0-.6-.513" transform="translate(-399.662 -165.704)" fill="none" stroke="#fff" stroke-width="1"/>
    <path id="Path_825" data-name="Path 825" d="M478.431,288.41h-1m0,0-.725.724m0,0v1m0,0,.725.694" transform="translate(-409.778 -169.701)" fill="none" stroke="#fff" stroke-width="1"/>
    <path id="Path_826" data-name="Path 826" d="M483.081,277.12h-1m0,0-.694.725m0,0v1m0,0,.694.694" transform="translate(-400.329 -192.496)" fill="none" stroke="#fff" stroke-width="1"/>
    <path id="Path_827" data-name="Path 827" d="M486.39,281.485h1m0,0,.725-.694m0,0v-1m0,0-.725-.694" transform="translate(-390.234 -188.498)" fill="none" stroke="#fff" stroke-width="1"/>
    <path id="Path_828" data-name="Path 828" d="M516.69,293.086l.936-.06m0,0,.664-.664m0,0,.03-.936m0,0-.543-.725m0,0-.906-.181" transform="translate(-329.057 -165.441)" fill="none" stroke="#fff" stroke-width="1"/>
    <path id="Path_829" data-name="Path 829" d="M513.39,288.08l1.721,2.9m0,0,2.445,2.325m0,0,3.019,1.509m0,0,3.291.634" transform="translate(-335.719 -170.368)" fill="none" stroke="#fff" stroke-width="1"/>
    <path id="Path_830" data-name="Path 830" d="M515.409,292.926l-3.019-7.246" transform="translate(-337.738 -175.213)" fill="none" stroke="#fff" stroke-width="1"/>
    <path id="Path_831" data-name="Path 831" d="M515.159,281.49l-1.9,2.808m0,0-1.026,3.2m0,0-.121,3.351m0,0,.845,3.291" transform="translate(-338.304 -183.673)" fill="none" stroke="#fff" stroke-width="1"/>
    <path id="Path_832" data-name="Path 832" d="M514.432,282.953l.332-.755m0,0-.181-.785m0,0-.634-.543m0,0-.815-.06m0,0-.694.453" transform="translate(-337.637 -185.046)" fill="none" stroke="#fff" stroke-width="1"/>
    <path id="Path_833" data-name="Path 833" d="M512.59,288.41l2.053,3.5m0,0,2.959,2.777m0,0,3.593,1.872m0,0,3.955.815" transform="translate(-337.335 -169.701)" fill="none" stroke="#fff" stroke-width="1"/>
    <path id="Path_834" data-name="Path 834" d="M514.822,280.96l-2.234,3.381m0,0-1.208,3.864m0,0-.121,4.076m0,0,1.026,3.925" transform="translate(-340.02 -184.743)" fill="none" stroke="#fff" stroke-width="1"/>
    <path id="Path_835" data-name="Path 835" d="M514.589,293.256,511.6,286.01" transform="translate(-339.333 -174.547)" fill="none" stroke="#fff" stroke-width="1"/>
    <path id="Path_836" data-name="Path 836" d="M520.65,278.14l11.925,28.8" transform="translate(-321.061 -190.437)" fill="none" stroke="#fff" stroke-width="1"/>
    <path id="Path_837" data-name="Path 837" d="M534.231,287.68l-14.4,5.978" transform="translate(-322.717 -171.175)" fill="none" stroke="#fff" stroke-width="1"/>
    <path id="Path_838" data-name="Path 838" d="M530.281,278.14l-14.4,5.948" transform="translate(-330.692 -190.437)" fill="none" stroke="#fff" stroke-width="1"/>
    <path id="Path_839" data-name="Path 839" d="M522.22,280.11l-3.532,2.053m0,0-2.868,2.868m0,0-2.053,3.532m0,0-1.027,3.925m0,0v4.076m0,0,1.027,3.925m0,0,2.053,3.532m0,0,2.868,2.868m0,0,3.532,2.053m0,0L526.145,310m0,0h4.076m0,0,3.925-1.057" transform="translate(-337.032 -186.459)" fill="none" stroke="#fff" stroke-width="1"/>
    <path id="Path_840" data-name="Path 840" d="M534.431,288.16l-14.4,5.948" transform="translate(-322.313 -170.206)" fill="none" stroke="#fff" stroke-width="1"/>
    <path id="Path_841" data-name="Path 841" d="M534.761,288.95l-14.4,5.978" transform="translate(-321.647 -168.611)" fill="none" stroke="#fff" stroke-width="1"/>
    <path id="Path_842" data-name="Path 842" d="M530.081,277.66l-14.4,5.978" transform="translate(-331.096 -191.406)" fill="none" stroke="#fff" stroke-width="1"/>
    <path id="Path_843" data-name="Path 843" d="M529.751,276.87l-14.4,5.948" transform="translate(-331.762 -193.001)" fill="none" stroke="#fff" stroke-width="1"/>
    <path id="Path_844" data-name="Path 844" d="M520.575,290.13l-.6.543m0,0-.211.755m0,0,.332.755m0,0,.664.423m0,0,.815-.06" transform="translate(-322.858 -166.228)" fill="none" stroke="#fff" stroke-width="1"/>
    <path id="Path_845" data-name="Path 845" d="M525.8,290.545l.694-.694m0,0v-1m0,0-.694-.694m0,0h-1" transform="translate(-312.682 -170.206)" fill="none" stroke="#fff" stroke-width="1"/>
    <path id="Path_846" data-name="Path 846" d="M521.116,279.255l.725-.694m0,0v-1m0,0-.725-.694m0,0h-1" transform="translate(-322.131 -193.001)" fill="none" stroke="#fff" stroke-width="1"/>
    <path id="Path_847" data-name="Path 847" d="M515.814,278.84l-.694.724m0,0v.966m0,0,.694.725m0,0h1" transform="translate(-332.227 -189.024)" fill="none" stroke="#fff" stroke-width="1"/>
  </g>
</svg>
